<?xml version="1.0" standalone="no"?><!DOCTYPE svg PUBLIC "-//W3C//DTD SVG 1.1//EN" "http://www.w3.org/Graphics/SVG/1.1/DTD/svg11.dtd"><svg t="1742536440375" class="icon" viewBox="0 0 1024 1024" version="1.1" xmlns="http://www.w3.org/2000/svg" p-id="7581" xmlns:xlink="http://www.w3.org/1999/xlink" width="200" height="200"><path d="M271.808 404.096a20.266667 20.266667 0 0 1 20.266667-20.266667h425.6a20.266667 20.266667 0 0 1 20.266666 20.266667v304.32a20.266667 20.266667 0 0 1-20.266666 20.266667H292.053333a20.266667 20.266667 0 0 1-20.266666-20.266667V404.096z" fill="#01BC8D" opacity=".2" p-id="7582"></path><path d="M352.810667 460.8h54.72v91.2h-54.72V460.8zM596.010667 460.8h54.72v91.2h-54.741334V460.8zM436.586667 598.037333a126.08 126.08 0 0 0 37.397333 16.298667l-8.042667 12.48a141.013333 141.013333 0 0 0 45.653334 5.525333 141.930667 141.930667 0 0 0 34.944-5.930666l-8.170667-12.373334 4.096-1.173333A126.912 126.912 0 0 0 575.68 597.333333l0.170667-0.106666 30.08 45.653333a182.336 182.336 0 0 1-199.232 0.981333l29.653333-45.973333 0.234667 0.149333z" fill="#01BC8D" p-id="7583"></path><path d="M504.810667 77.76a79.04 79.04 0 0 0-18.24 155.946667v56.853333H241.344a58.773333 58.773333 0 0 0-58.773333 58.773333v405.333334a58.773333 58.773333 0 0 0 58.773333 58.773333h311.722667c0.789333 0 1.493333 0.426667 1.813333 1.109333l50.218667 100.437334c14.869333 29.717333 57.856 27.925333 70.186666-2.922667l38.954667-97.365333a2.026667 2.026667 0 0 1 1.877333-1.28h52.16a58.773333 58.773333 0 0 0 58.773334-58.752v-405.333334a58.773333 58.773333 0 0 0-58.773334-58.773333H523.050667v-56.832a79.061333 79.061333 0 0 0-18.24-155.968zM462.250667 156.8a42.56 42.56 0 1 1 85.12 0 42.56 42.56 0 0 1-85.12 0z m-243.2 192.533333c0-12.330667 9.962667-22.293333 22.293333-22.293333h526.933333c12.309333 0 22.293333 9.962667 22.293334 22.293333v405.333334c0 12.309333-9.984 22.293333-22.293334 22.293333h-52.16c-15.744 0-29.888 9.578667-35.754666 24.192l-38.933334 97.365333c-0.256 0.618667-0.512 0.832-0.661333 0.938667a2.218667 2.218667 0 0 1-1.130667 0.341333 2.197333 2.197333 0 0 1-1.152-0.256c-0.170667-0.085333-0.448-0.277333-0.746666-0.853333l-50.218667-100.458667a38.506667 38.506667 0 0 0-34.432-21.269333H241.344a22.293333 22.293333 0 0 1-22.293333-22.293333v-405.333334z" fill="#01BC8D" p-id="7584"></path><path d="M893.909333 488.149333a27.370667 27.370667 0 0 1 54.72 0v127.68a27.349333 27.349333 0 1 1-54.72 0v-127.68zM91.349333 460.8C76.245333 460.8 64 473.045333 64 488.149333v127.68a27.370667 27.370667 0 0 0 54.72 0v-127.68c0-15.104-12.245333-27.349333-27.370667-27.349333z" fill="#01BC8D" p-id="7585"></path></svg>